<svg width="27" height="24" viewBox="0 0 27 24" fill="none" xmlns="http://www.w3.org/2000/svg">
<g clip-path="url(#clip0_4002_280)">
<path d="M11.8125 8.9375H2.1875C1.94588 8.9375 1.75 9.13338 1.75 9.375V15.9375C1.75 16.1791 1.94588 16.375 2.1875 16.375H11.8125C12.0541 16.375 12.25 16.1791 12.25 15.9375V9.375C12.25 9.13338 12.0541 8.9375 11.8125 8.9375Z" stroke="#333333" stroke-linecap="round" stroke-linejoin="round"/>
<path d="M4.8125 10.25V8.5C4.8125 7.91984 5.04297 7.36344 5.4532 6.9532C5.86344 6.54297 6.41984 6.3125 7 6.3125C7.58016 6.3125 8.13656 6.54297 8.5468 6.9532C8.95703 7.36344 9.1875 7.91984 9.1875 8.5V10.25" stroke="#333333" stroke-linecap="round" stroke-linejoin="round"/>
</g>
<path d="M25.28 17H18.672V15.978L21.29 13.332C21.794 12.828 22.2187 12.38 22.564 11.988C22.9093 11.596 23.1707 11.2133 23.348 10.84C23.5253 10.4573 23.614 10.042 23.614 9.594C23.614 9.04333 23.4507 8.628 23.124 8.348C22.7973 8.05867 22.3727 7.914 21.85 7.914C21.3647 7.914 20.9353 7.998 20.562 8.166C20.198 8.334 19.8247 8.56733 19.442 8.866L18.784 8.04C19.0453 7.816 19.33 7.61533 19.638 7.438C19.9553 7.26067 20.296 7.12067 20.66 7.018C21.0333 6.91533 21.43 6.864 21.85 6.864C22.4753 6.864 23.012 6.97133 23.46 7.186C23.908 7.40067 24.2533 7.70867 24.496 8.11C24.748 8.502 24.874 8.97333 24.874 9.524C24.874 9.916 24.8133 10.2893 24.692 10.644C24.5707 10.9893 24.398 11.33 24.174 11.666C23.95 12.002 23.6793 12.3427 23.362 12.688C23.0447 13.0333 22.6947 13.3927 22.312 13.766L20.226 15.824V15.88H25.28V17Z" fill="#333333"/>
<defs>
<clipPath id="clip0_4002_280">
<rect width="14" height="14" fill="white" transform="translate(0 5)"/>
</clipPath>
</defs>
</svg>
