<svg width="87" height="20" viewBox="0 0 87 20" fill="none" xmlns="http://www.w3.org/2000/svg">
<g clip-path="url(#clip0_4002_255)">
<path d="M75.2534 0.326904V19.7274H71.4932L60.9482 6.3487V19.673H56.425V0.326904H61.6839L70.8392 12.1798V0.326904H75.2534Z" fill="black"/>
<path d="M45.9695 19.673V0.326904H50.6016V19.673H45.9695Z" fill="black"/>
<path d="M24.2563 19.673V0.326904H40.4416V4.14162H28.8885V7.62936H35.7822V11.5258H28.8885V15.6675H41.5043V19.673H24.2563Z" fill="black"/>
<path d="M10.4183 20C7.51181 20 5.13215 19.0554 3.27929 17.1662C1.42643 15.2589 0.5 12.8701 0.5 10C0.5 7.07539 1.43551 4.67757 3.30654 2.80654C5.17757 0.935514 7.54814 0 10.4183 0C12.2166 0 13.8697 0.390554 15.3774 1.17166C16.9033 1.93461 18.0568 3.06994 18.8379 4.57766C19.2193 5.3406 19.4646 5.99455 19.5736 6.53951H14.8597C14.7688 6.37602 14.6054 6.14896 14.3692 5.85831C13.8061 5.24069 13.0795 4.75931 12.1894 4.41417C11.6626 4.25068 11.0722 4.16894 10.4183 4.16894C8.81971 4.16894 7.55722 4.74115 6.63079 5.88556C5.70436 7.01181 5.24114 8.38329 5.24114 10C5.24114 11.6349 5.71344 13.0154 6.65804 14.1417C7.60263 15.2679 8.85604 15.8311 10.4183 15.8311C12.1803 15.8311 13.5154 15.2679 14.4237 14.1417C14.6962 13.7602 14.8506 13.5332 14.8869 13.4605H19.5736C19.3738 14.7139 18.8015 15.8583 17.8569 16.8937C16.9124 17.911 15.8134 18.6921 14.5599 19.2371C13.47 19.7457 12.0895 20 10.4183 20Z" fill="black"/>
<circle cx="82" cy="17.5" r="2.5" fill="black"/>
</g>
<defs>
<clipPath id="clip0_4002_255">
<rect width="86" height="20" fill="white" transform="translate(0.5)"/>
</clipPath>
</defs>
</svg>
